PathFileType	4	(X/Y/Z)	OpenSim_Sub05_CSBaseline_Accel.trc
DataRate	CameraRate	NumFrames	NumMarkers	Units	OrigDataRate	OrigDataStartFrame	OrigNumFrames
100	100	27	8	m	100	7918	10557
Frame#	Time	torso_imu_offset_imu	pelvis_imu_offset_imu	tibia_r_imu_offset_imu	femur_r_imu_offset_imu	tibia_l_imu_offset_imu	femur_l_imu_offset_imu	toes_r_imu_offset_imu	toes_l_imu_offset_imu
				X1	Y1	Z1	X2	Y2	Z2	X3	Y3	Z3	X4	Y4	Z4	X5	Y5	Z5	X6	Y6	Z6	X7	Y7	Z7	X8		Y8	Z8	

7918	79.17000000	8.85506483	-0.06091072	5.65680487	9.30733632	0.49444350	2.15524002	9.86844466	1.87264811	0.11358798	9.85022815	-1.70197534	2.70378677	10.33064674	-4.15322860	-0.18298451	8.02397841	1.47459756	2.63169184	5.68360803	-1.37718002	8.12721415	12.38484244	2.44877711	10.48126153
7919	79.18000000	8.96853006	-0.21797145	5.59377398	9.19133942	0.49575970	2.13174928	9.96010307	1.68736715	-0.33560227	9.84551287	-1.89849453	2.60798242	10.33303570	-4.69833873	0.10013748	8.65872439	2.14795598	2.99249373	5.66296820	-1.57999546	8.12144922	13.34672809	1.92790178	9.80636933
7920	79.19000000	9.14990688	-0.36571790	5.55255637	9.04864871	0.39820650	2.01976548	10.18399048	1.40421860	-0.44461433	9.78030169	-1.90782863	2.10403105	10.39628241	-5.18232689	0.20378562	8.78940000	2.66866107	3.50485430	5.53853972	-1.70477353	8.27002948	13.95558029	1.71600784	8.65084570
7921	79.20000000	9.30766225	-0.42834612	5.66500343	8.89458161	0.10152565	1.99302671	10.28225505	1.01116027	-0.28201345	9.49457819	-1.38720468	1.77670964	9.65749452	-5.00193149	0.06186283	8.71562326	3.07760558	3.60681118	5.61251717	-1.86579219	8.21690839	15.18445419	1.99229750	7.58854144
7922	79.21000000	9.37132949	-0.41844263	5.62508081	8.87667064	0.11046395	1.91423850	10.50974035	0.54105697	-0.16570148	9.41317339	-0.83217422	1.87856729	9.56304113	-4.61173145	0.36302197	8.68277904	3.28436296	2.97222777	5.53943686	-1.66321848	8.37011561	17.26107132	1.96922777	6.73032060
7923	79.22000000	9.36876727	-0.34029368	5.69186962	9.02330744	0.25395687	1.93604860	10.73663492	0.27461457	0.04309656	10.02980065	-0.65678244	1.74963383	9.51962507	-4.24286788	0.42368899	8.47403487	3.13073006	2.25140674	5.48303032	-1.70400985	8.46216747	19.52227206	1.37798376	5.48659993
7924	79.23000000	9.36770930	-0.28941842	5.74975728	9.18659734	0.33501163	1.90914363	10.94374432	0.05504494	0.36308449	10.36866746	-0.91628006	1.32421840	10.06886943	-4.05204253	0.11786605	8.58066983	2.90747361	1.72763898	5.40441085	-1.56775854	8.60865742	20.18227491	1.02570013	3.39163051
7925	79.24000000	9.46890285	-0.28300878	5.84396710	9.34697987	0.42797505	1.87325861	11.12830591	-0.11831782	0.51228421	10.14524639	-1.29079964	1.25047834	10.32672044	-3.89631358	-0.47415824	8.58114968	2.88809482	1.48345741	5.69717628	-1.30684407	8.49312729	19.63991434	0.42106704	0.97229696
7926	79.25000000	9.63394598	-0.14536232	5.98688868	9.41491652	0.57251920	2.02306324	11.21589719	-0.13939086	0.57776206	10.15134153	-1.76679477	1.65072671	10.62185841	-3.76509150	-0.65041773	9.07012052	3.32111134	1.99302957	5.64600988	-1.17602108	8.66331984	19.23152412	-0.72733545	-1.02572542
7927	79.26000000	9.65448735	0.00622750	6.06218757	9.33069202	0.60079813	1.98326905	11.31664980	-0.40273077	0.68882893	10.17010204	-1.86994933	2.16997674	10.41001879	-3.90297178	-0.88939838	9.53707760	3.82765288	2.86746419	5.44526137	-1.17562169	8.83496664	19.00820671	-2.16929721	-2.14504741
7928	79.27000000	9.61192246	0.12425016	6.05992318	9.23279330	0.55858860	1.86847900	11.21982263	-0.30736711	0.83623049	10.24459134	-1.89499029	2.56081077	9.69238891	-4.34786038	-1.06605561	9.68061423	3.78317368	3.80692373	5.31669870	-1.21646478	8.86943995	18.58824517	1.48665821	-3.18095821
7929	79.28000000	9.53041433	0.19318337	5.95140236	9.30424464	0.27638996	1.68022805	11.43131861	-0.25734849	0.85824617	10.31597551	-2.17336972	2.27952538	10.35396688	-3.71821050	-1.42159264	9.50838829	3.03431490	4.20318008	5.48853444	-1.18949598	8.78150694	18.86155385	-0.54962881	-5.25019445
7930	79.29000000	9.40911713	0.23264113	5.93558785	9.58610534	-0.01848266	1.54057051	11.79190984	-0.15758755	1.17383971	10.20846138	-2.66108962	1.65946439	10.92742140	-2.89992272	-1.05608892	9.41566135	2.25624786	3.72561718	5.65416350	-1.29094881	8.68948170	22.45957377	-5.46838841	-5.78533486
7931	79.30000000	9.43055796	0.30991790	5.86156071	9.95667182	-0.32745500	1.37205154	12.18472895	0.26876072	1.36787231	10.13852562	-3.03616902	1.52894753	11.24623227	-3.84863870	0.87476475	8.84194389	1.29198287	2.70792111	5.69943298	-0.75050728	8.76177496	24.05409177	-2.68560656	-7.15530741
7932	79.31000000	9.62107487	0.39676576	5.94436643	10.31688538	-0.57802104	1.41447537	12.61681110	0.19450718	1.65529265	10.69716320	-3.18601823	1.64808860	11.36860377	-6.26417391	1.74905249	8.07785841	0.81934053	1.18554047	5.45975817	-0.46180222	9.16405856	11.40024821	-2.40150901	1.05278811
7933	79.32000000	9.97988262	0.57095587	5.98325727	10.70817524	-0.53802937	1.79622651	13.37424688	-0.29874615	1.38969948	11.01059288	-3.28674842	1.84965939	9.96071248	-8.62370396	-0.11181373	8.38067120	0.14835788	-0.44465448	5.42691049	-0.90184145	9.36017072	13.10571502	-1.83037029	20.63259555
7934	79.33000000	10.51390736	0.72262418	6.17174007	11.14937002	-0.49644785	2.68722983	14.47836290	-0.30268445	1.52492433	11.22716763	-3.25711303	2.31936154	9.07445555	-6.44639695	1.38655339	10.63906056	-0.53865282	-0.62584748	5.75680742	-1.36676436	9.35611190	9.77734261	-3.00432621	22.46909271
7935	79.34000000	11.18865496	0.98250186	6.56438609	11.64332016	-0.96470713	3.35166486	15.63160652	-0.55935113	1.85096669	11.76122078	-3.22841203	2.79593218	11.96018089	0.29590759	6.22758437	13.80296175	-0.00553508	0.67092517	5.16345319	-1.40088579	10.10298507	3.28723762	-3.69935269	13.90477115
7936	79.35000000	11.84052885	1.39135075	6.68301267	12.07372948	-1.65301592	3.71628020	16.28383897	-0.88447082	2.72795066	11.97394998	-3.24197692	3.12645137	14.08607842	3.06934068	6.21155065	14.75052054	-0.27331054	2.63907175	4.98526943	-2.05545996	10.50883441	7.42287601	2.76238091	12.95867215
7937	79.36000000	12.05532296	1.69047624	6.54729771	12.33375492	-2.17183791	4.08612186	16.53561011	-0.91889069	3.11363056	11.50878729	-3.29429110	3.43544259	11.93212016	-0.34110360	3.31897896	13.03831430	-1.11440181	3.63942791	5.22847370	-2.82820475	10.81685788	10.79187458	7.29808073	14.60269803
7938	79.37000000	11.49148659	1.89218607	6.36513834	12.41699796	-2.18828396	4.39238661	16.66415067	-1.96663880	2.19342845	10.72686376	-3.28300042	3.62622039	9.65913598	-4.93753729	-0.63922559	11.51976694	-0.19377184	2.52002954	5.10107445	-2.75754079	10.88014223	9.60846933	4.28803521	12.41764223
7939	79.38000000	10.87739647	2.15992575	6.24154605	11.98364541	-1.83113702	4.62565916	16.83030649	-5.18803240	1.65342069	10.00892358	-3.07041580	3.79355704	9.70129831	-7.21250698	-3.58889235	11.40308356	1.97828287	1.79804560	6.93070089	-2.68676338	11.08208694	8.02072625	1.51781432	10.56907764
7940	79.39000000	10.28643797	2.48818488	6.12032726	11.19440392	-1.52654636	4.57993680	16.17457883	-7.86873318	1.76839232	9.48181822	-2.90354250	4.72114123	10.23152886	-7.46757091	-3.26268395	10.38443157	2.93854515	1.32790128	7.44907737	-4.51957255	11.05226393	8.26633327	2.30181717	11.01131124
7941	79.40000000	9.36491403	2.60706121	5.79320350	10.16870081	-1.40261206	4.40220658	14.65870598	-7.04121669	0.46824456	9.65323570	-2.01751826	5.90491642	9.71568747	-5.84984383	-2.12054406	8.64429380	1.83723424	-0.69492767	10.71437110	-5.07203309	11.77368205	6.93545430	2.77122509	11.10575112
7942	79.41000000	8.39151014	2.57138348	5.43944300	9.08253238	-1.25429047	4.20330263	12.83734005	-3.09255647	-0.79268089	10.33585224	-0.67104095	5.54286961	9.13902366	-3.33031644	-1.45205238	8.60350915	-0.43861091	-2.09026102	12.19352844	-3.29535839	11.25819658	4.87060954	2.75702229	11.01003926
7943	79.42000000	7.80576805	2.59830702	5.12444133	8.28498678	-1.21808877	4.01583048	11.05313964	2.08750066	-0.98170152	10.56983062	-0.15876736	4.19230762	9.29740885	-1.21364399	-1.21800137	9.63357684	-2.38076374	-1.33315162	16.02006127	-3.99957978	10.54475676	4.02503287	3.33312456	11.19041803
7944	79.43000000	7.53177187	2.72199927	4.78782950	7.75813265	-1.47773605	3.82303092	9.38854131	6.47620083	-0.87078376	10.69810183	-0.40006191	2.59691270	9.57111360	-0.45230328	-0.77692739	10.28483913	-2.40707314	-0.55970363	17.07009044	-5.46297622	9.67158894	4.47332645	3.37899570	11.27923010
